<mxfile host="Electron" agent="Mozilla/5.0 (Windows NT 10.0; Win64; x64) AppleWebKit/537.36 (KHTML, like Gecko) draw.io/28.1.2 Chrome/138.0.7204.243 Electron/37.4.0 Safari/537.36" version="28.1.2">
  <diagram name="User Management Flow" id="GJd0xAB_ZsSlliA-RbCM">
    <mxGraphModel dx="366133" dy="275590" grid="1" gridSize="10" guides="1" tooltips="1" connect="1" arrows="1" fold="1" page="1" pageScale="1" pageWidth="827" pageHeight="1169" math="0" shadow="0">
      <root>
        <mxCell id="0" />
        <mxCell id="1" parent="0" />
        <mxCell id="4lX4NVz1P68pO8q-l6Es-1" value="Start" style="ellipse;whiteSpace=wrap;html=1;aspect=fixed;fillColor=#dae8fc;strokeColor=#6c8ebf;" vertex="1" parent="1">
          <mxGeometry x="320" y="20" width="120" height="60" as="geometry" />
        </mxCell>
        <mxCell id="4lX4NVz1P68pO8q-l6Es-2" value="Kallar på Användarhanterings klassen" style="rounded=1;whiteSpace=wrap;html=1;fillColor=#fff2cc;strokeColor=#d6b656;" vertex="1" parent="1">
          <mxGeometry x="300" y="100" width="180" height="60" as="geometry" />
        </mxCell>
        <mxCell id="4lX4NVz1P68pO8q-l6Es-3" value="Kallar på menyn innan inloggning" style="rounded=1;whiteSpace=wrap;html=1;fillColor=#fff2cc;strokeColor=#d6b656;" vertex="1" parent="1">
          <mxGeometry x="300" y="180" width="180" height="60" as="geometry" />
        </mxCell>
        <mxCell id="4lX4NVz1P68pO8q-l6Es-4" value="Visar icke-inloggad meny" style="rounded=1;whiteSpace=wrap;html=1;fillColor=#e1d5e7;strokeColor=#9673a6;" vertex="1" parent="1">
          <mxGeometry x="300" y="260" width="180" height="60" as="geometry" />
        </mxCell>
        <mxCell id="4lX4NVz1P68pO8q-l6Es-5" value="Välj mellan 3 val" style="rhombus;whiteSpace=wrap;html=1;fillColor=#f8cecc;strokeColor=#b85450;" vertex="1" parent="1">
          <mxGeometry x="320" y="340" width="140" height="80" as="geometry" />
        </mxCell>
        <mxCell id="4lX4NVz1P68pO8q-l6Es-6" value="Kallar på inloggnings funktionen" style="rounded=1;whiteSpace=wrap;html=1;fillColor=#d5e8d4;strokeColor=#82b366;" vertex="1" parent="1">
          <mxGeometry x="80" y="450" width="180" height="60" as="geometry" />
        </mxCell>
        <mxCell id="4lX4NVz1P68pO8q-l6Es-7" value="Kalla på registerings funktionen" style="rounded=1;whiteSpace=wrap;html=1;fillColor=#d5e8d4;strokeColor=#82b366;" vertex="1" parent="1">
          <mxGeometry x="300" y="450" width="180" height="60" as="geometry" />
        </mxCell>
        <mxCell id="4lX4NVz1P68pO8q-l6Es-8" value="Avslutar programmet" style="ellipse;whiteSpace=wrap;html=1;aspect=fixed;fillColor=#f8cecc;strokeColor=#b85450;" vertex="1" parent="1">
          <mxGeometry x="520" y="450" width="120" height="60" as="geometry" />
        </mxCell>
        <mxCell id="4lX4NVz1P68pO8q-l6Es-9" value="Inloggning lyckad!" style="rhombus;whiteSpace=wrap;html=1;fillColor=#ffe6cc;strokeColor=#d79b00;" vertex="1" parent="1">
          <mxGeometry x="80" y="530" width="120" height="80" as="geometry" />
        </mxCell>
        <mxCell id="4lX4NVz1P68pO8q-l6Es-10" value="Kallar på menyn efter lyckad inloggning" style="rounded=1;whiteSpace=wrap;html=1;fillColor=#fff2cc;strokeColor=#d6b656;" vertex="1" parent="1">
          <mxGeometry x="80" y="640" width="180" height="60" as="geometry" />
        </mxCell>
        <mxCell id="4lX4NVz1P68pO8q-l6Es-11" value="Loopar tillbaka till meny" style="rounded=1;whiteSpace=wrap;html=1;fillColor=#f5f5f5;strokeColor=#666666;" vertex="1" parent="1">
          <mxGeometry x="300" y="530" width="180" height="40" as="geometry" />
        </mxCell>
        <mxCell id="4lX4NVz1P68pO8q-l6Es-12" value="Visar inloggad meny" style="rounded=1;whiteSpace=wrap;html=1;fillColor=#e1d5e7;strokeColor=#9673a6;" vertex="1" parent="1">
          <mxGeometry x="80" y="720" width="180" height="60" as="geometry" />
        </mxCell>
        <mxCell id="4lX4NVz1P68pO8q-l6Es-13" value="Välj mellan 6 officela val(7:e hemligt)" style="rhombus;whiteSpace=wrap;html=1;fillColor=#f8cecc;strokeColor=#b85450;" vertex="1" parent="1">
          <mxGeometry x="80" y="800" width="120" height="80" as="geometry" />
        </mxCell>
        <mxCell id="4lX4NVz1P68pO8q-l6Es-14" value="Kallar på att byta lösenord" style="rounded=1;whiteSpace=wrap;html=1;fillColor=#d5e8d4;strokeColor=#82b366;" vertex="1" parent="1">
          <mxGeometry x="-120" y="900" width="180" height="60" as="geometry" />
        </mxCell>
        <mxCell id="4lX4NVz1P68pO8q-l6Es-15" value="Kallar på att byta namn" style="rounded=1;whiteSpace=wrap;html=1;fillColor=#d5e8d4;strokeColor=#82b366;" vertex="1" parent="1">
          <mxGeometry x="80" y="900" width="180" height="60" as="geometry" />
        </mxCell>
        <mxCell id="4lX4NVz1P68pO8q-l6Es-16" value="Kallar på menyn innan inloggning för användarbyte." style="rounded=1;whiteSpace=wrap;html=1;fillColor=#fff2cc;strokeColor=#d6b656;" vertex="1" parent="1">
          <mxGeometry x="280" y="900" width="220" height="60" as="geometry" />
        </mxCell>
        <mxCell id="4lX4NVz1P68pO8q-l6Es-17" value="Kallar på ta bort funktionen" style="rounded=1;whiteSpace=wrap;html=1;fillColor=#d5e8d4;strokeColor=#82b366;" vertex="1" parent="1">
          <mxGeometry x="520" y="900" width="180" height="60" as="geometry" />
        </mxCell>
        <mxCell id="4lX4NVz1P68pO8q-l6Es-18" value="Kallar på lista av alla användare" style="rounded=1;whiteSpace=wrap;html=1;fillColor=#d5e8d4;strokeColor=#82b366;" vertex="1" parent="1">
          <mxGeometry x="80" y="980" width="180" height="60" as="geometry" />
        </mxCell>
        <mxCell id="4lX4NVz1P68pO8q-l6Es-19" value="Avslutar programmet" style="ellipse;whiteSpace=wrap;html=1;aspect=fixed;fillColor=#f8cecc;strokeColor=#b85450;" vertex="1" parent="1">
          <mxGeometry x="320" y="980" width="120" height="60" as="geometry" />
        </mxCell>
        <mxCell id="4lX4NVz1P68pO8q-l6Es-20" value="Visar loggnings historiken(admin)" style="rounded=1;whiteSpace=wrap;html=1;fillColor=#d5e8d4;strokeColor=#82b366;" vertex="1" parent="1">
          <mxGeometry x="520" y="980" width="180" height="60" as="geometry" />
        </mxCell>
        <mxCell id="4lX4NVz1P68pO8q-l6Es-21" value="Slut" style="ellipse;whiteSpace=wrap;html=1;aspect=fixed;fillColor=#dae8fc;strokeColor=#6c8ebf;" vertex="1" parent="1">
          <mxGeometry x="320" y="1100" width="120" height="60" as="geometry" />
        </mxCell>
        <mxCell id="4lX4NVz1P68pO8q-l6Es-22" style="edgeStyle=orthogonalEdgeStyle;rounded=0;orthogonalLoop=1;jettySize=auto;html=1;endArrow=block;endFill=1;" edge="1" parent="1" source="4lX4NVz1P68pO8q-l6Es-1" target="4lX4NVz1P68pO8q-l6Es-2" />
        <mxCell id="4lX4NVz1P68pO8q-l6Es-23" style="edgeStyle=orthogonalEdgeStyle;rounded=0;orthogonalLoop=1;jettySize=auto;html=1;endArrow=block;endFill=1;" edge="1" parent="1" source="4lX4NVz1P68pO8q-l6Es-2" target="4lX4NVz1P68pO8q-l6Es-3" />
        <mxCell id="4lX4NVz1P68pO8q-l6Es-24" style="edgeStyle=orthogonalEdgeStyle;rounded=0;orthogonalLoop=1;jettySize=auto;html=1;endArrow=block;endFill=1;" edge="1" parent="1" source="4lX4NVz1P68pO8q-l6Es-3" target="4lX4NVz1P68pO8q-l6Es-4" />
        <mxCell id="4lX4NVz1P68pO8q-l6Es-25" style="edgeStyle=orthogonalEdgeStyle;rounded=0;orthogonalLoop=1;jettySize=auto;html=1;endArrow=block;endFill=1;" edge="1" parent="1" source="4lX4NVz1P68pO8q-l6Es-4" target="4lX4NVz1P68pO8q-l6Es-5" />
        <mxCell id="4lX4NVz1P68pO8q-l6Es-26" style="edgeStyle=orthogonalEdgeStyle;rounded=0;orthogonalLoop=1;jettySize=auto;html=1;endArrow=block;endFill=1;" edge="1" parent="1" source="4lX4NVz1P68pO8q-l6Es-5" target="4lX4NVz1P68pO8q-l6Es-6">
          <mxGeometry relative="1" as="geometry">
            <mxPoint x="200" y="380" as="targetPoint" />
          </mxGeometry>
        </mxCell>
        <mxCell id="4lX4NVz1P68pO8q-l6Es-27" style="edgeStyle=orthogonalEdgeStyle;rounded=0;orthogonalLoop=1;jettySize=auto;html=1;endArrow=block;endFill=1;" edge="1" parent="1" source="4lX4NVz1P68pO8q-l6Es-5" target="4lX4NVz1P68pO8q-l6Es-7" />
        <mxCell id="4lX4NVz1P68pO8q-l6Es-28" style="edgeStyle=orthogonalEdgeStyle;rounded=0;orthogonalLoop=1;jettySize=auto;html=1;endArrow=block;endFill=1;" edge="1" parent="1" source="4lX4NVz1P68pO8q-l6Es-5" target="4lX4NVz1P68pO8q-l6Es-8" />
        <mxCell id="4lX4NVz1P68pO8q-l6Es-29" style="edgeStyle=orthogonalEdgeStyle;rounded=0;orthogonalLoop=1;jettySize=auto;html=1;endArrow=block;endFill=1;" edge="1" parent="1" source="4lX4NVz1P68pO8q-l6Es-6" target="4lX4NVz1P68pO8q-l6Es-9" />
        <mxCell id="4lX4NVz1P68pO8q-l6Es-30" value="Ja" style="edgeStyle=orthogonalEdgeStyle;rounded=0;orthogonalLoop=1;jettySize=auto;html=1;endArrow=block;endFill=1;" edge="1" parent="1" source="4lX4NVz1P68pO8q-l6Es-9" target="4lX4NVz1P68pO8q-l6Es-10">
          <mxGeometry relative="1" as="geometry">
            <mxPoint x="80" y="600" as="targetPoint" />
          </mxGeometry>
        </mxCell>
        <mxCell id="4lX4NVz1P68pO8q-l6Es-31" value="Nej" style="edgeStyle=orthogonalEdgeStyle;rounded=0;orthogonalLoop=1;jettySize=auto;html=1;endArrow=block;endFill=1;" edge="1" parent="1" source="4lX4NVz1P68pO8q-l6Es-9" target="4lX4NVz1P68pO8q-l6Es-11">
          <mxGeometry relative="1" as="geometry">
            <mxPoint x="200" y="570" as="targetPoint" />
          </mxGeometry>
        </mxCell>
        <mxCell id="4lX4NVz1P68pO8q-l6Es-32" style="edgeStyle=orthogonalEdgeStyle;rounded=0;orthogonalLoop=1;jettySize=auto;html=1;endArrow=block;endFill=1;" edge="1" parent="1" source="4lX4NVz1P68pO8q-l6Es-7" target="4lX4NVz1P68pO8q-l6Es-11" />
        <mxCell id="4lX4NVz1P68pO8q-l6Es-33" style="edgeStyle=orthogonalEdgeStyle;rounded=0;orthogonalLoop=1;jettySize=auto;html=1;endArrow=block;endFill=1;" edge="1" parent="1" source="4lX4NVz1P68pO8q-l6Es-11" target="4lX4NVz1P68pO8q-l6Es-4" />
        <mxCell id="4lX4NVz1P68pO8q-l6Es-34" style="edgeStyle=orthogonalEdgeStyle;rounded=0;orthogonalLoop=1;jettySize=auto;html=1;endArrow=block;endFill=1;" edge="1" parent="1" source="4lX4NVz1P68pO8q-l6Es-10" target="4lX4NVz1P68pO8q-l6Es-12" />
        <mxCell id="4lX4NVz1P68pO8q-l6Es-35" style="edgeStyle=orthogonalEdgeStyle;rounded=0;orthogonalLoop=1;jettySize=auto;html=1;endArrow=block;endFill=1;" edge="1" parent="1" source="4lX4NVz1P68pO8q-l6Es-12" target="4lX4NVz1P68pO8q-l6Es-13" />
        <mxCell id="4lX4NVz1P68pO8q-l6Es-36" style="edgeStyle=orthogonalEdgeStyle;rounded=0;orthogonalLoop=1;jettySize=auto;html=1;endArrow=block;endFill=1;" edge="1" parent="1" source="4lX4NVz1P68pO8q-l6Es-13" target="4lX4NVz1P68pO8q-l6Es-14" />
        <mxCell id="4lX4NVz1P68pO8q-l6Es-37" style="edgeStyle=orthogonalEdgeStyle;rounded=0;orthogonalLoop=1;jettySize=auto;html=1;endArrow=block;endFill=1;" edge="1" parent="1" source="4lX4NVz1P68pO8q-l6Es-13" target="4lX4NVz1P68pO8q-l6Es-15" />
        <mxCell id="4lX4NVz1P68pO8q-l6Es-38" style="edgeStyle=orthogonalEdgeStyle;rounded=0;orthogonalLoop=1;jettySize=auto;html=1;endArrow=block;endFill=1;" edge="1" parent="1" source="4lX4NVz1P68pO8q-l6Es-13" target="4lX4NVz1P68pO8q-l6Es-16" />
        <mxCell id="4lX4NVz1P68pO8q-l6Es-39" style="edgeStyle=orthogonalEdgeStyle;rounded=0;orthogonalLoop=1;jettySize=auto;html=1;endArrow=block;endFill=1;" edge="1" parent="1" source="4lX4NVz1P68pO8q-l6Es-13" target="4lX4NVz1P68pO8q-l6Es-17" />
        <mxCell id="4lX4NVz1P68pO8q-l6Es-40" style="edgeStyle=orthogonalEdgeStyle;rounded=0;orthogonalLoop=1;jettySize=auto;html=1;endArrow=block;endFill=1;" edge="1" parent="1" source="4lX4NVz1P68pO8q-l6Es-13" target="4lX4NVz1P68pO8q-l6Es-18" />
        <mxCell id="4lX4NVz1P68pO8q-l6Es-41" style="edgeStyle=orthogonalEdgeStyle;rounded=0;orthogonalLoop=1;jettySize=auto;html=1;endArrow=block;endFill=1;" edge="1" parent="1" source="4lX4NVz1P68pO8q-l6Es-13" target="4lX4NVz1P68pO8q-l6Es-19" />
        <mxCell id="4lX4NVz1P68pO8q-l6Es-42" style="edgeStyle=orthogonalEdgeStyle;rounded=0;orthogonalLoop=1;jettySize=auto;html=1;endArrow=block;endFill=1;" edge="1" parent="1" source="4lX4NVz1P68pO8q-l6Es-13" target="4lX4NVz1P68pO8q-l6Es-20" />
        <mxCell id="4lX4NVz1P68pO8q-l6Es-43" style="edgeStyle=orthogonalEdgeStyle;rounded=0;orthogonalLoop=1;jettySize=auto;html=1;endArrow=block;endFill=1;" edge="1" parent="1" source="4lX4NVz1P68pO8q-l6Es-14" target="4lX4NVz1P68pO8q-l6Es-12" />
        <mxCell id="4lX4NVz1P68pO8q-l6Es-44" style="edgeStyle=orthogonalEdgeStyle;rounded=0;orthogonalLoop=1;jettySize=auto;html=1;endArrow=block;endFill=1;" edge="1" parent="1" source="4lX4NVz1P68pO8q-l6Es-15" target="4lX4NVz1P68pO8q-l6Es-12" />
        <mxCell id="4lX4NVz1P68pO8q-l6Es-45" style="edgeStyle=orthogonalEdgeStyle;rounded=0;orthogonalLoop=1;jettySize=auto;html=1;endArrow=block;endFill=1;" edge="1" parent="1" source="4lX4NVz1P68pO8q-l6Es-16" target="4lX4NVz1P68pO8q-l6Es-4" />
        <mxCell id="4lX4NVz1P68pO8q-l6Es-46" style="edgeStyle=orthogonalEdgeStyle;rounded=0;orthogonalLoop=1;jettySize=auto;html=1;endArrow=block;endFill=1;" edge="1" parent="1" source="4lX4NVz1P68pO8q-l6Es-17" target="4lX4NVz1P68pO8q-l6Es-12" />
        <mxCell id="4lX4NVz1P68pO8q-l6Es-47" style="edgeStyle=orthogonalEdgeStyle;rounded=0;orthogonalLoop=1;jettySize=auto;html=1;endArrow=block;endFill=1;" edge="1" parent="1" source="4lX4NVz1P68pO8q-l6Es-18" target="4lX4NVz1P68pO8q-l6Es-12" />
        <mxCell id="4lX4NVz1P68pO8q-l6Es-48" style="edgeStyle=orthogonalEdgeStyle;rounded=0;orthogonalLoop=1;jettySize=auto;html=1;endArrow=block;endFill=1;" edge="1" parent="1" source="4lX4NVz1P68pO8q-l6Es-20" target="4lX4NVz1P68pO8q-l6Es-12" />
        <mxCell id="4lX4NVz1P68pO8q-l6Es-49" style="edgeStyle=orthogonalEdgeStyle;rounded=0;orthogonalLoop=1;jettySize=auto;html=1;endArrow=block;endFill=1;" edge="1" parent="1" source="4lX4NVz1P68pO8q-l6Es-8" target="4lX4NVz1P68pO8q-l6Es-21" />
        <mxCell id="4lX4NVz1P68pO8q-l6Es-50" style="edgeStyle=orthogonalEdgeStyle;rounded=0;orthogonalLoop=1;jettySize=auto;html=1;endArrow=block;endFill=1;" edge="1" parent="1" source="4lX4NVz1P68pO8q-l6Es-19" target="4lX4NVz1P68pO8q-l6Es-21" />
        <mxCell id="4lX4NVz1P68pO8q-l6Es-53" value="" style="endArrow=classic;startArrow=classic;html=1;rounded=0;" edge="1" parent="1" source="4lX4NVz1P68pO8q-l6Es-2" target="4lX4NVz1P68pO8q-l6Es-1">
          <mxGeometry width="50" height="50" relative="1" as="geometry">
            <mxPoint x="360" y="120" as="sourcePoint" />
            <mxPoint x="410" y="70" as="targetPoint" />
            <Array as="points">
              <mxPoint x="380" y="100" />
            </Array>
          </mxGeometry>
        </mxCell>
        <mxCell id="4lX4NVz1P68pO8q-l6Es-55" value="" style="endArrow=classic;startArrow=classic;html=1;rounded=0;" edge="1" parent="1">
          <mxGeometry width="50" height="50" relative="1" as="geometry">
            <mxPoint x="380" y="180" as="sourcePoint" />
            <mxPoint x="380" y="160" as="targetPoint" />
            <Array as="points">
              <mxPoint x="380" y="180" />
              <mxPoint x="380" y="170" />
            </Array>
          </mxGeometry>
        </mxCell>
        <mxCell id="4lX4NVz1P68pO8q-l6Es-56" value="" style="endArrow=classic;startArrow=classic;html=1;rounded=0;" edge="1" parent="1">
          <mxGeometry width="50" height="50" relative="1" as="geometry">
            <mxPoint x="380" y="260" as="sourcePoint" />
            <mxPoint x="380" y="240" as="targetPoint" />
            <Array as="points">
              <mxPoint x="380" y="260" />
            </Array>
          </mxGeometry>
        </mxCell>
        <mxCell id="4lX4NVz1P68pO8q-l6Es-57" value="" style="endArrow=classic;startArrow=classic;html=1;rounded=0;" edge="1" parent="1">
          <mxGeometry width="50" height="50" relative="1" as="geometry">
            <mxPoint x="390" y="340" as="sourcePoint" />
            <mxPoint x="390" y="320" as="targetPoint" />
            <Array as="points">
              <mxPoint x="390" y="340" />
            </Array>
          </mxGeometry>
        </mxCell>
        <mxCell id="4lX4NVz1P68pO8q-l6Es-60" value="" style="endArrow=classic;startArrow=classic;html=1;rounded=0;" edge="1" parent="1">
          <mxGeometry width="50" height="50" relative="1" as="geometry">
            <mxPoint x="170" y="720" as="sourcePoint" />
            <mxPoint x="170" y="700" as="targetPoint" />
            <Array as="points">
              <mxPoint x="170" y="720" />
            </Array>
          </mxGeometry>
        </mxCell>
        <mxCell id="4lX4NVz1P68pO8q-l6Es-61" value="" style="endArrow=classic;startArrow=classic;html=1;rounded=0;" edge="1" parent="1">
          <mxGeometry width="50" height="50" relative="1" as="geometry">
            <mxPoint x="140" y="800" as="sourcePoint" />
            <mxPoint x="140" y="780" as="targetPoint" />
            <Array as="points">
              <mxPoint x="140" y="800" />
            </Array>
          </mxGeometry>
        </mxCell>
        <mxCell id="4lX4NVz1P68pO8q-l6Es-62" value="" style="endArrow=classic;html=1;rounded=0;exitX=0.5;exitY=1;exitDx=0;exitDy=0;" edge="1" parent="1" source="4lX4NVz1P68pO8q-l6Es-19" target="4lX4NVz1P68pO8q-l6Es-21">
          <mxGeometry width="50" height="50" relative="1" as="geometry">
            <mxPoint x="360" y="1070" as="sourcePoint" />
            <mxPoint x="410" y="1020" as="targetPoint" />
          </mxGeometry>
        </mxCell>
        <mxCell id="4lX4NVz1P68pO8q-l6Es-64" value="" style="endArrow=none;html=1;rounded=0;" edge="1" parent="1">
          <mxGeometry width="50" height="50" relative="1" as="geometry">
            <mxPoint x="478.82" y="900" as="sourcePoint" />
            <mxPoint x="478.82" y="630" as="targetPoint" />
          </mxGeometry>
        </mxCell>
        <mxCell id="4lX4NVz1P68pO8q-l6Es-65" value="" style="endArrow=none;html=1;rounded=0;" edge="1" parent="1">
          <mxGeometry width="50" height="50" relative="1" as="geometry">
            <mxPoint x="480" y="630" as="sourcePoint" />
            <mxPoint x="670" y="630" as="targetPoint" />
          </mxGeometry>
        </mxCell>
        <mxCell id="4lX4NVz1P68pO8q-l6Es-66" value="" style="endArrow=none;html=1;rounded=0;" edge="1" parent="1">
          <mxGeometry width="50" height="50" relative="1" as="geometry">
            <mxPoint x="670" y="630" as="sourcePoint" />
            <mxPoint x="670" y="280" as="targetPoint" />
          </mxGeometry>
        </mxCell>
        <mxCell id="4lX4NVz1P68pO8q-l6Es-69" value="" style="endArrow=classic;html=1;rounded=0;entryX=1.006;entryY=0.15;entryDx=0;entryDy=0;entryPerimeter=0;" edge="1" parent="1">
          <mxGeometry width="50" height="50" relative="1" as="geometry">
            <mxPoint x="668.92" y="281" as="sourcePoint" />
            <mxPoint x="479.9999999999872" y="279.99999999998545" as="targetPoint" />
          </mxGeometry>
        </mxCell>
        <mxCell id="4lX4NVz1P68pO8q-l6Es-70" value="" style="endArrow=none;html=1;rounded=0;" edge="1" parent="1">
          <mxGeometry width="50" height="50" relative="1" as="geometry">
            <mxPoint x="640" y="480" as="sourcePoint" />
            <mxPoint x="730" y="480" as="targetPoint" />
          </mxGeometry>
        </mxCell>
        <mxCell id="4lX4NVz1P68pO8q-l6Es-71" value="" style="endArrow=none;html=1;rounded=0;" edge="1" parent="1">
          <mxGeometry width="50" height="50" relative="1" as="geometry">
            <mxPoint x="730" y="1130" as="sourcePoint" />
            <mxPoint x="730" y="480" as="targetPoint" />
          </mxGeometry>
        </mxCell>
        <mxCell id="4lX4NVz1P68pO8q-l6Es-72" value="" style="endArrow=classic;html=1;rounded=0;entryX=1.017;entryY=0.35;entryDx=0;entryDy=0;entryPerimeter=0;" edge="1" parent="1">
          <mxGeometry width="50" height="50" relative="1" as="geometry">
            <mxPoint x="730" y="1130" as="sourcePoint" />
            <mxPoint x="442.04000000000815" y="1130.5" as="targetPoint" />
          </mxGeometry>
        </mxCell>
        <mxCell id="4lX4NVz1P68pO8q-l6Es-74" value="" style="endArrow=classic;html=1;rounded=0;entryX=0.5;entryY=0;entryDx=0;entryDy=0;" edge="1" parent="1" target="4lX4NVz1P68pO8q-l6Es-7">
          <mxGeometry width="50" height="50" relative="1" as="geometry">
            <mxPoint x="390" y="420" as="sourcePoint" />
            <mxPoint x="440" y="370" as="targetPoint" />
          </mxGeometry>
        </mxCell>
        <mxCell id="4lX4NVz1P68pO8q-l6Es-77" value="" style="endArrow=none;html=1;rounded=0;" edge="1" parent="1">
          <mxGeometry width="50" height="50" relative="1" as="geometry">
            <mxPoint x="460" y="380" as="sourcePoint" />
            <mxPoint x="580" y="380" as="targetPoint" />
          </mxGeometry>
        </mxCell>
        <mxCell id="4lX4NVz1P68pO8q-l6Es-78" value="" style="endArrow=classic;html=1;rounded=0;entryX=0.5;entryY=0;entryDx=0;entryDy=0;" edge="1" parent="1" target="4lX4NVz1P68pO8q-l6Es-8">
          <mxGeometry width="50" height="50" relative="1" as="geometry">
            <mxPoint x="580" y="380" as="sourcePoint" />
            <mxPoint x="630" y="330" as="targetPoint" />
          </mxGeometry>
        </mxCell>
        <mxCell id="4lX4NVz1P68pO8q-l6Es-80" value="" style="endArrow=classic;html=1;rounded=0;entryX=0.722;entryY=0;entryDx=0;entryDy=0;entryPerimeter=0;" edge="1" parent="1">
          <mxGeometry width="50" height="50" relative="1" as="geometry">
            <mxPoint x="140" y="510" as="sourcePoint" />
            <mxPoint x="140" y="530" as="targetPoint" />
          </mxGeometry>
        </mxCell>
        <mxCell id="4lX4NVz1P68pO8q-l6Es-81" value="" style="endArrow=classic;html=1;rounded=0;" edge="1" parent="1">
          <mxGeometry width="50" height="50" relative="1" as="geometry">
            <mxPoint x="140" y="880" as="sourcePoint" />
            <mxPoint x="140" y="897" as="targetPoint" />
          </mxGeometry>
        </mxCell>
        <mxCell id="4lX4NVz1P68pO8q-l6Es-83" value="" style="endArrow=none;html=1;rounded=0;" edge="1" parent="1">
          <mxGeometry width="50" height="50" relative="1" as="geometry">
            <mxPoint x="80" y="840" as="sourcePoint" />
            <mxPoint x="-40" y="840" as="targetPoint" />
          </mxGeometry>
        </mxCell>
        <mxCell id="4lX4NVz1P68pO8q-l6Es-84" value="" style="endArrow=none;html=1;rounded=0;" edge="1" parent="1">
          <mxGeometry width="50" height="50" relative="1" as="geometry">
            <mxPoint x="200" y="840" as="sourcePoint" />
            <mxPoint x="600" y="840" as="targetPoint" />
          </mxGeometry>
        </mxCell>
        <mxCell id="4lX4NVz1P68pO8q-l6Es-85" value="" style="endArrow=classic;html=1;rounded=0;entryX=0.439;entryY=-0.012;entryDx=0;entryDy=0;entryPerimeter=0;" edge="1" parent="1" target="4lX4NVz1P68pO8q-l6Es-14">
          <mxGeometry width="50" height="50" relative="1" as="geometry">
            <mxPoint x="-40" y="840" as="sourcePoint" />
            <mxPoint x="10" y="790" as="targetPoint" />
          </mxGeometry>
        </mxCell>
        <mxCell id="4lX4NVz1P68pO8q-l6Es-86" value="" style="endArrow=classic;html=1;rounded=0;entryX=0.437;entryY=-0.048;entryDx=0;entryDy=0;entryPerimeter=0;" edge="1" parent="1" target="4lX4NVz1P68pO8q-l6Es-17">
          <mxGeometry width="50" height="50" relative="1" as="geometry">
            <mxPoint x="600" y="840" as="sourcePoint" />
            <mxPoint x="650" y="790" as="targetPoint" />
          </mxGeometry>
        </mxCell>
        <mxCell id="4lX4NVz1P68pO8q-l6Es-87" value="" style="endArrow=classic;html=1;rounded=0;" edge="1" parent="1">
          <mxGeometry width="50" height="50" relative="1" as="geometry">
            <mxPoint x="400" y="840" as="sourcePoint" />
            <mxPoint x="398" y="898" as="targetPoint" />
          </mxGeometry>
        </mxCell>
        <mxCell id="4lX4NVz1P68pO8q-l6Es-88" value="" style="endArrow=none;html=1;rounded=0;" edge="1" parent="1">
          <mxGeometry width="50" height="50" relative="1" as="geometry">
            <mxPoint x="70" y="840" as="sourcePoint" />
            <mxPoint x="70" y="1080" as="targetPoint" />
          </mxGeometry>
        </mxCell>
        <mxCell id="4lX4NVz1P68pO8q-l6Es-89" value="" style="endArrow=none;html=1;rounded=0;" edge="1" parent="1">
          <mxGeometry width="50" height="50" relative="1" as="geometry">
            <mxPoint x="70" y="1080" as="sourcePoint" />
            <mxPoint x="160" y="1080" as="targetPoint" />
          </mxGeometry>
        </mxCell>
        <mxCell id="4lX4NVz1P68pO8q-l6Es-90" value="" style="endArrow=classic;html=1;rounded=0;entryX=0.45;entryY=0.97;entryDx=0;entryDy=0;entryPerimeter=0;" edge="1" parent="1" target="4lX4NVz1P68pO8q-l6Es-18">
          <mxGeometry width="50" height="50" relative="1" as="geometry">
            <mxPoint x="160" y="1080" as="sourcePoint" />
            <mxPoint x="210" y="1030" as="targetPoint" />
          </mxGeometry>
        </mxCell>
        <mxCell id="4lX4NVz1P68pO8q-l6Es-91" value="" style="endArrow=none;html=1;rounded=0;" edge="1" parent="1">
          <mxGeometry width="50" height="50" relative="1" as="geometry">
            <mxPoint x="510" y="1080" as="sourcePoint" />
            <mxPoint x="510" y="840" as="targetPoint" />
          </mxGeometry>
        </mxCell>
        <mxCell id="4lX4NVz1P68pO8q-l6Es-92" value="" style="endArrow=none;html=1;rounded=0;" edge="1" parent="1">
          <mxGeometry width="50" height="50" relative="1" as="geometry">
            <mxPoint x="510" y="1080" as="sourcePoint" />
            <mxPoint x="600" y="1080" as="targetPoint" />
          </mxGeometry>
        </mxCell>
        <mxCell id="4lX4NVz1P68pO8q-l6Es-93" value="" style="endArrow=classic;html=1;rounded=0;" edge="1" parent="1">
          <mxGeometry width="50" height="50" relative="1" as="geometry">
            <mxPoint x="600" y="1080" as="sourcePoint" />
            <mxPoint x="600" y="1040" as="targetPoint" />
          </mxGeometry>
        </mxCell>
      </root>
    </mxGraphModel>
  </diagram>
</mxfile>
